<mxfile host="Electron" modified="2024-05-25T08:58:51.955Z" agent="Mozilla/5.0 (Windows NT 10.0; Win64; x64) AppleWebKit/537.36 (KHTML, like Gecko) draw.io/24.4.8 Chrome/124.0.6367.207 Electron/30.0.6 Safari/537.36" etag="cpqvAc1KBeLnuGOdUMTM" version="24.4.8" type="device">
  <diagram name="Seite-1" id="JglpVuhKJZ4LjeI_iKhf">
    <mxGraphModel dx="1050" dy="621" grid="1" gridSize="10" guides="1" tooltips="1" connect="1" arrows="1" fold="1" page="1" pageScale="1" pageWidth="827" pageHeight="1169" math="0" shadow="0">
      <root>
        <mxCell id="0" />
        <mxCell id="1" parent="0" />
        <mxCell id="-zu-WaUTnJdsrZC2qm7--1" value="" style="endArrow=classic;html=1;rounded=0;" parent="1" edge="1">
          <mxGeometry width="50" height="50" relative="1" as="geometry">
            <mxPoint x="40" y="200" as="sourcePoint" />
            <mxPoint x="280" y="200" as="targetPoint" />
          </mxGeometry>
        </mxCell>
        <mxCell id="-zu-WaUTnJdsrZC2qm7--2" value="" style="endArrow=classic;html=1;rounded=0;" parent="1" edge="1">
          <mxGeometry width="50" height="50" relative="1" as="geometry">
            <mxPoint x="160" y="320" as="sourcePoint" />
            <mxPoint x="160" y="80" as="targetPoint" />
          </mxGeometry>
        </mxCell>
        <mxCell id="-zu-WaUTnJdsrZC2qm7--3" value="" style="endArrow=none;html=1;rounded=0;" parent="1" edge="1">
          <mxGeometry width="50" height="50" relative="1" as="geometry">
            <mxPoint x="240" y="210" as="sourcePoint" />
            <mxPoint x="240" y="190" as="targetPoint" />
          </mxGeometry>
        </mxCell>
        <mxCell id="-zu-WaUTnJdsrZC2qm7--4" value="" style="endArrow=none;html=1;rounded=0;" parent="1" edge="1">
          <mxGeometry width="50" height="50" relative="1" as="geometry">
            <mxPoint x="80" y="210" as="sourcePoint" />
            <mxPoint x="80" y="190" as="targetPoint" />
          </mxGeometry>
        </mxCell>
        <mxCell id="-zu-WaUTnJdsrZC2qm7--6" value="" style="endArrow=none;html=1;rounded=0;" parent="1" edge="1">
          <mxGeometry width="50" height="50" relative="1" as="geometry">
            <mxPoint x="150" y="120" as="sourcePoint" />
            <mxPoint x="170" y="120" as="targetPoint" />
          </mxGeometry>
        </mxCell>
        <mxCell id="-zu-WaUTnJdsrZC2qm7--7" value="" style="endArrow=none;html=1;rounded=0;" parent="1" edge="1">
          <mxGeometry width="50" height="50" relative="1" as="geometry">
            <mxPoint x="150" y="280" as="sourcePoint" />
            <mxPoint x="170" y="280" as="targetPoint" />
          </mxGeometry>
        </mxCell>
        <mxCell id="-zu-WaUTnJdsrZC2qm7--8" value="&lt;font style=&quot;font-size: 14px;&quot;&gt;+1 = -&lt;/font&gt;&lt;font style=&quot;font-size: 14px;&quot;&gt;i²&lt;/font&gt;" style="text;html=1;align=center;verticalAlign=middle;whiteSpace=wrap;rounded=0;" parent="1" vertex="1">
          <mxGeometry x="240" y="200" width="60" height="40" as="geometry" />
        </mxCell>
        <mxCell id="-zu-WaUTnJdsrZC2qm7--9" value="&lt;font style=&quot;font-size: 14px;&quot;&gt;+i&lt;/font&gt;" style="text;html=1;align=center;verticalAlign=middle;whiteSpace=wrap;rounded=0;" parent="1" vertex="1">
          <mxGeometry x="110" y="90" width="60" height="39" as="geometry" />
        </mxCell>
        <mxCell id="-zu-WaUTnJdsrZC2qm7--12" value="&lt;font style=&quot;font-size: 14px;&quot;&gt;&lt;b&gt;ℝ&lt;/b&gt;&lt;/font&gt;" style="text;html=1;align=center;verticalAlign=middle;whiteSpace=wrap;rounded=0;" parent="1" vertex="1">
          <mxGeometry x="270" y="180" width="60" height="40" as="geometry" />
        </mxCell>
        <mxCell id="-zu-WaUTnJdsrZC2qm7--13" value="&lt;span style=&quot;font-size: 14px;&quot;&gt;&lt;b&gt;ℂ&lt;/b&gt;&lt;/span&gt;" style="text;html=1;align=center;verticalAlign=middle;whiteSpace=wrap;rounded=0;" parent="1" vertex="1">
          <mxGeometry x="130" y="40" width="60" height="40" as="geometry" />
        </mxCell>
        <mxCell id="-zu-WaUTnJdsrZC2qm7--22" value="&lt;font style=&quot;font-size: 14px;&quot;&gt;-1 =&amp;nbsp;&lt;/font&gt;&lt;font style=&quot;font-size: 14px;&quot;&gt;i²&lt;/font&gt;" style="text;html=1;align=center;verticalAlign=middle;whiteSpace=wrap;rounded=0;" parent="1" vertex="1">
          <mxGeometry x="20" y="200" width="60" height="40" as="geometry" />
        </mxCell>
        <mxCell id="uKFftfucfu5pk2UlHUYQ-1" value="&lt;font style=&quot;font-size: 14px;&quot;&gt;-&amp;nbsp;i&lt;/font&gt;" style="text;html=1;align=center;verticalAlign=middle;whiteSpace=wrap;rounded=0;" parent="1" vertex="1">
          <mxGeometry x="110" y="270" width="60" height="39" as="geometry" />
        </mxCell>
        <mxCell id="uKFftfucfu5pk2UlHUYQ-2" value="" style="ellipse;whiteSpace=wrap;html=1;aspect=fixed;fillColor=none;dashed=1;dashPattern=1 2;strokeColor=#97D077;strokeWidth=3;" parent="1" vertex="1">
          <mxGeometry x="80" y="120" width="160" height="160" as="geometry" />
        </mxCell>
        <mxCell id="IC3biCqAZC5JZN_omNLU-1" value="&lt;font style=&quot;font-size: 14px;&quot;&gt;0&lt;/font&gt;" style="text;html=1;align=center;verticalAlign=middle;whiteSpace=wrap;rounded=0;" vertex="1" parent="1">
          <mxGeometry x="140" y="190" width="60" height="39" as="geometry" />
        </mxCell>
      </root>
    </mxGraphModel>
  </diagram>
</mxfile>
